<svg xmlns="http://www.w3.org/2000/svg" xmlns:xlink="http://www.w3.org/1999/xlink" width="1920" zoomAndPan="magnify" viewBox="0 0 1440 809.999993" height="1080" preserveAspectRatio="xMidYMid meet" version="1.0"><rect x="-144" width="1728" fill="#ffffff" y="-80.999999" height="971.999992" fill-opacity="1"/><rect x="-144" width="1728" fill="#ebebeb" y="-80.999999" height="971.999992" fill-opacity="1"/><path fill="#000000" d="M 384.320312 549.382812 C 396.023438 554.835938 408.421875 560.703125 421.929688 566.257812 C 399.394531 550.425781 377.550781 533.203125 355.359375 518.96875 C 315.039062 493.066406 275.761719 465.464844 236.171875 438.519531 C 224.332031 465.011719 208.703125 488.378906 188.285156 508.414062 C 209.503906 515.566406 228.984375 526.605469 252.21875 530.042969 C 283.125 534.699219 313.027344 540.183594 343.238281 548.515625 C 355.429688 551.917969 367.757812 554.972656 380.085938 557.960938 C 364.285156 550.355469 350.078125 543.550781 337.023438 538.273438 C 330.5625 535.355469 324.242188 533.515625 318.375 531.226562 C 312.433594 529.140625 306.671875 527.890625 301.355469 526.261719 C 290.453125 523.066406 280.972656 520.324219 272.777344 517.925781 C 264.476562 515.636719 257.703125 513.238281 252.078125 511.085938 C 246.417969 508.933594 241.902344 507.164062 238.464844 505.707031 C 231.449219 502.859375 228.601562 501.296875 228.847656 500.636719 C 229.054688 499.976562 232.320312 500.394531 239.644531 502.128906 C 243.257812 502.996094 247.910156 504.210938 253.710938 505.808594 C 256.59375 506.644531 259.789062 507.546875 263.226562 508.519531 C 266.699219 509.386719 270.554688 510.289062 274.652344 511.261719 C 282.882812 513.273438 292.363281 515.636719 303.230469 518.378906 C 308.789062 519.800781 314.832031 520.984375 320.976562 523.03125 C 327.054688 525.148438 333.757812 527.058594 340.425781 529.871094 C 353.933594 535.078125 368.484375 541.851562 384.320312 549.382812 Z M 425.371094 625.667969 C 431.308594 626.222656 452.386719 630.527344 464.125 628.410156 C 446.691406 624.589844 430.058594 618.757812 412.832031 612.890625 C 383.488281 602.855469 354.59375 598.828125 323.652344 596.085938 C 294.550781 593.515625 261.871094 592.820312 233.882812 583.621094 C 212.730469 576.640625 192.832031 566.46875 171.578125 560.320312 C 170.675781 561.882812 169.667969 563.445312 168.628906 565.007812 C 214.886719 592.230469 268.78125 601.292969 321.1875 609.835938 C 355.773438 615.492188 390.398438 622.613281 425.371094 625.667969 Z M 481.140625 579.695312 C 473.917969 572.335938 466.589844 565.148438 460.722656 558.828125 C 428.5625 524.109375 396.269531 489.558594 363.902344 455.046875 C 325.144531 413.625 286.804688 371.679688 247.527344 330.640625 C 227.492188 347.621094 208.390625 365.535156 190.957031 385.117188 C 246.417969 420.742188 299.515625 459.875 354.976562 495.496094 C 395.226562 521.328125 436.273438 558.828125 481.140625 579.695312 Z M 482.183594 612.054688 C 484.476562 610.492188 487.011719 609.035156 489.71875 607.75 C 470.0625 603.757812 451.449219 596.535156 431.691406 591.570312 C 400.332031 583.792969 369.214844 575.773438 338.03125 567.371094 C 307.746094 559.210938 277.847656 554.246094 247.007812 548.898438 C 224.019531 544.941406 204.710938 534.488281 183.769531 527.441406 C 182.9375 532.855469 181.617188 537.890625 179.914062 542.648438 C 199.953125 549.316406 218.496094 559.800781 239.089844 564.695312 C 271.144531 572.40625 303.753906 574.417969 336.398438 577.683594 C 360.707031 580.078125 384.667969 582.648438 407.902344 590.527344 C 432.417969 598.929688 456.382812 608.585938 482.183594 612.054688 Z M 537.191406 661.429688 C 537.191406 661.429688 536.011719 651.117188 535.179688 648.199219 C 534.65625 646.292969 533.996094 644.484375 533.269531 642.644531 C 530.074219 640.839844 528.859375 637.507812 529.171875 634.171875 C 524.480469 626.082031 517.675781 619.417969 508.4375 617.089844 C 506.527344 618.828125 504.722656 620.667969 502.949219 622.507812 C 502.222656 623.929688 501.109375 625.144531 499.476562 626.222656 C 498.574219 627.265625 497.671875 628.304688 496.734375 629.347656 C 496.285156 629.867188 495.761719 630.320312 495.242188 630.632812 C 492.324219 633.792969 489.441406 636.847656 486.558594 639.972656 C 488.539062 652.160156 509.617188 665.074219 522.78125 663.964844 C 526.84375 663.652344 533.753906 663.859375 537.191406 661.429688 Z M 803.519531 275.988281 C 775.007812 221.652344 732.363281 170.230469 684.785156 131.550781 C 646.027344 100.058594 602.445312 70.890625 577.269531 26.933594 C 513.195312 69.398438 454.609375 117.382812 396.476562 167.695312 C 346.226562 211.132812 290.730469 251.40625 245.550781 300.363281 C 293.507812 349.703125 339.835938 400.640625 386.820312 450.878906 C 418.457031 484.664062 450.027344 518.378906 481.417969 552.371094 C 493.679688 565.597656 508.679688 578.792969 519.828125 593.585938 C 570.355469 549.105469 604.738281 485.914062 649.917969 436.195312 C 699.789062 381.402344 757.710938 334.425781 803.519531 275.988281 Z M 912.5625 743.546875 C 911.972656 737.886719 911.523438 732.191406 911.035156 726.53125 C 888.601562 725.246094 867.765625 718.648438 846.058594 712.191406 C 817.269531 703.71875 787.613281 699.726562 758.128906 694.378906 C 745.976562 692.15625 733.855469 689.691406 721.699219 687.191406 C 731.703125 690.214844 741.597656 693.269531 751.53125 696.324219 C 804.492188 712.816406 857.414062 734.933594 912.5625 743.546875 Z M 941.039062 382.828125 C 974.96875 323.351562 1013.621094 265.019531 1054.390625 209.636719 C 975.558594 231.304688 900.617188 264.878906 821.925781 287.203125 C 820.882812 287.449219 819.945312 287.585938 819.042969 287.585938 C 774.695312 343.695312 719.546875 388.765625 671.484375 441.539062 C 627.554688 489.871094 593 550.21875 546.011719 596.015625 C 597.097656 587.714844 644.988281 568.273438 694.4375 553.203125 C 740.765625 539.140625 788.378906 531.816406 835.605469 521.921875 C 843.976562 519.351562 848.804688 517.613281 856.164062 507.753906 C 864.464844 496.710938 875.371094 488.101562 884.675781 478.136719 C 910.0625 450.984375 922.84375 414.734375 941.039062 382.828125 Z M 1110.023438 235.539062 C 1108.84375 233.144531 1107.835938 230.714844 1107.039062 228.179688 C 1092.625 229.011719 1078.316406 231.375 1063.976562 233.179688 C 1063.003906 233.316406 1062.066406 233.25 1061.230469 233.144531 C 1019.210938 290.640625 978.824219 351.40625 946.527344 414.007812 C 930.691406 444.734375 916.660156 474.421875 891.65625 498.761719 C 880.128906 510.011719 871.898438 524.628906 860.886719 535.667969 C 854.222656 542.335938 840.398438 540.632812 831.71875 543.757812 C 829.425781 544.59375 827.480469 544.523438 825.710938 543.933594 C 775.804688 554.210938 726.007812 562.996094 677.351562 579.3125 C 667.28125 582.714844 657.316406 586.015625 647.246094 589.347656 C 653.148438 587.925781 658.808594 586.5 664.433594 585.183594 C 685.617188 579.972656 705.34375 576.1875 723.261719 574.417969 C 758.71875 572.195312 785.042969 565.53125 805.878906 561.222656 C 826.542969 556.816406 841.09375 554.523438 850.4375 553.722656 C 859.777344 553.132812 863.804688 553.203125 863.875 553.933594 C 863.875 555.632812 847.867188 557.265625 807.441406 568.03125 C 797.199219 570.5625 785.390625 573.6875 771.535156 576.640625 C 764.691406 578.0625 757.261719 579.382812 749.308594 580.53125 C 741.425781 581.46875 733.054688 582.4375 724.199219 583.410156 C 706.835938 585.390625 687.769531 589.210938 666.691406 594.488281 C 662.734375 595.496094 658.636719 596.535156 654.433594 597.578125 C 674.992188 595.527344 695.480469 593.339844 715.902344 590.839844 C 769.660156 584.347656 824.390625 580.496094 877.003906 567.160156 C 901.695312 542.371094 916.589844 509.109375 937.253906 481.054688 C 957.5 453.726562 978.304688 426.921875 999.3125 400.257812 C 1040.359375 348.140625 1071.269531 289.21875 1110.023438 235.539062 Z M 1120.617188 302.585938 C 1110.023438 302.480469 1099.535156 302.585938 1088.980469 303.835938 C 1088.492188 303.90625 1088.113281 303.90625 1087.660156 303.90625 C 1063.835938 341.265625 1040.671875 379.113281 1013.132812 414.074219 C 988.304688 445.707031 961.496094 477.09375 939.753906 511.019531 C 924.753906 534.488281 911.972656 559.070312 892.527344 579.175781 C 891.65625 581.847656 889.644531 584.140625 886.066406 585.113281 C 830.675781 599.660156 772.644531 603.6875 715.902344 610.425781 C 715.171875 610.492188 714.40625 610.5625 713.679688 610.667969 C 715.171875 610.738281 716.664062 610.738281 718.191406 610.804688 C 773.652344 612.75 828.246094 626.464844 883.53125 626.671875 C 907.597656 601.085938 919.960938 568.933594 940.136719 540.496094 C 960.835938 511.328125 981.707031 482.234375 1003.480469 453.9375 C 1042.304688 403.382812 1080.679688 352.238281 1120.617188 302.585938 Z M 1142.007812 323.800781 C 1138.152344 322.691406 1134.300781 321.890625 1130.410156 321.371094 C 1085.195312 377.480469 1040.8125 435.222656 998.410156 493.273438 C 978.648438 520.289062 958.023438 546.746094 941.527344 575.910156 C 927.878906 600.042969 914.4375 623.652344 894.75 643.445312 C 892.246094 645.910156 889.433594 646.636719 886.832031 646.152344 C 886.449219 646.222656 886.066406 646.292969 885.648438 646.292969 C 825.433594 646.429688 766.394531 630.839844 705.933594 630.042969 C 668.082031 629.519531 630.160156 630.527344 592.339844 631.359375 C 609.945312 632.542969 627.554688 633.304688 645.300781 635.457031 C 673.429688 638.792969 701.351562 643.445312 729.269531 647.855469 C 779.382812 655.839844 832.550781 653.859375 881.621094 667.574219 C 971.53125 555.355469 1057.203125 439.839844 1142.007812 323.800781 Z M 1145.066406 375.570312 C 1140.167969 374.667969 1135.273438 373.972656 1130.304688 373.417969 C 1130.132812 373.417969 1129.992188 373.382812 1129.785156 373.382812 C 1053.070312 477.859375 975.386719 581.710938 894.296875 682.886719 C 892.628906 687.089844 888.601562 690.074219 883.042969 688.375 C 829.113281 671.464844 768.339844 673.964844 712.496094 664.832031 C 709.234375 664.3125 705.96875 663.894531 702.703125 663.445312 C 719.027344 666.984375 735.277344 670.386719 751.636719 673.375 C 781.328125 678.722656 812.410156 681.84375 841.300781 690.316406 C 863.945312 697.054688 885.996094 705.144531 909.472656 706.84375 C 963.058594 662.226562 996.707031 594.246094 1036.886719 538.203125 C 1074.394531 485.914062 1113.636719 431.957031 1145.066406 375.570312 Z M 1156.871094 419.804688 C 1156.835938 419.699219 1156.835938 419.632812 1156.769531 419.5625 C 1155.585938 416.089844 1154.648438 411.785156 1153.957031 407.167969 C 1152.914062 405.847656 1152.324219 404.355469 1152.183594 402.652344 C 1118.84375 459.457031 1078.664062 513.863281 1040.222656 566.78125 C 1003.828125 616.8125 975.421875 674.625 928.710938 716.046875 C 928.78125 716.601562 928.78125 717.15625 928.710938 717.679688 C 929.511719 719.101562 930.03125 720.734375 930.238281 722.433594 C 930.863281 728.894531 931.144531 735.421875 931.871094 741.84375 C 977.085938 687.332031 1024.976562 634.417969 1060.78125 573.0625 C 1091.238281 520.808594 1118.464844 466.714844 1156.871094 419.804688 Z M 1189.550781 416.4375 C 1184.863281 415.324219 1180.175781 414.285156 1175.484375 413.242188 C 1175.519531 413.417969 1175.519531 413.625 1175.625 413.761719 C 1176.25 415.707031 1176.25 417.546875 1175.867188 419.109375 C 1177.117188 422.234375 1176.980469 426.019531 1174.167969 429.285156 C 1127.804688 484.386719 1100.160156 551.015625 1060.574219 610.597656 C 1023.65625 666.257812 978.164062 715.699219 936.039062 767.363281 C 930.933594 773.71875 923.433594 770.175781 920.828125 764.308594 C 860.75 756.53125 803.902344 733.058594 746.320312 715.246094 C 683.082031 695.664062 619.601562 676.8125 556.847656 655.769531 C 556.570312 655.699219 556.398438 655.5625 556.117188 655.421875 C 556.257812 657.714844 556.257812 659.796875 555.980469 661.8125 C 681.136719 704.867188 798.933594 773.164062 932.394531 787.640625 C 932.636719 787.640625 932.773438 787.710938 933.019531 787.78125 C 961.214844 764.449219 976.949219 732.261719 997.578125 702.609375 C 1018.898438 671.878906 1044.390625 644.207031 1066.789062 614.207031 C 1092.175781 580.21875 1115.652344 544.941406 1139.335938 509.90625 C 1159.371094 480.359375 1178.332031 450.359375 1189.550781 416.4375 Z M 1204.691406 399.839844 C 1209.867188 401.160156 1212.921875 406.890625 1211.5 411.921875 C 1200.523438 451.402344 1179.339844 486.226562 1156.210938 519.765625 C 1132.214844 554.660156 1109.332031 590.320312 1083.667969 624.070312 C 1057.238281 658.894531 1027.234375 691.5 1004 728.613281 C 986.671875 756.289062 969.828125 784.066406 943.679688 804.34375 C 941.5625 805.972656 939.304688 806.5625 937.082031 806.496094 C 935.761719 807.085938 934.269531 807.433594 932.394531 807.222656 C 794.800781 792.292969 674.226562 722.226562 544.972656 678.582031 C 539.101562 681.914062 531.394531 683.476562 522.78125 683.546875 C 502.8125 683.753906 478.46875 672.332031 470.132812 653.027344 C 469.335938 651.046875 468.675781 649.105469 468.152344 647.261719 C 410.4375 646.636719 352.960938 635.421875 296.253906 625.421875 C 245.167969 616.5 193.945312 605.214844 149.980469 576.5 C 145.777344 573.757812 143.242188 567.648438 146.472656 563.132812 C 149.527344 558.757812 152.445312 554.523438 155.117188 550.21875 C 154.804688 546.226562 156.820312 541.988281 160.46875 539.976562 C 162.445312 535.289062 163.941406 530.253906 164.738281 524.558594 C 164.773438 523.796875 164.980469 523.136719 165.191406 522.40625 C 158.730469 520.324219 154.425781 512.234375 161.058594 506.78125 C 187.347656 484.976562 206.167969 458.625 219.78125 427.445312 C 203.945312 416.75 187.902344 406.230469 171.683594 396.019531 C 167.726562 393.519531 166.613281 389.5625 167.34375 385.953125 C 167.34375 383.800781 168.039062 381.578125 169.738281 379.5625 C 189.117188 356.472656 211.03125 335.988281 233.949219 316.542969 C 232.25 314.878906 230.617188 313.105469 228.914062 311.335938 C 222.90625 309.390625 218.566406 301.09375 224.089844 294.773438 C 275.761719 235.921875 342.441406 188.25 401.824219 137.347656 C 456.761719 90.195312 512.363281 45.894531 572.960938 6.171875 C 574.734375 5.0625 576.398438 4.609375 577.960938 4.609375 C 582.027344 2.804688 587.027344 3.429688 589.597656 8.671875 C 616.128906 61.898438 670.09375 90.996094 712.636719 129.675781 C 754.832031 167.9375 793.726562 215.367188 820.363281 265.992188 C 820.988281 266.199219 821.578125 266.40625 822.167969 266.71875 C 908.292969 241.652344 990.109375 203.699219 1077.660156 183.5625 C 1089.429688 180.820312 1094.640625 197.902344 1084.394531 201.859375 C 1081.929688 205.195312 1079.429688 208.527344 1076.964844 211.859375 C 1089.605469 210.089844 1102.28125 208.386719 1115.058594 208.214844 C 1121.277344 208.074219 1124.402344 212.761719 1124.539062 217.589844 C 1124.992188 220.191406 1125.652344 222.832031 1126.695312 225.367188 C 1126.796875 225.539062 1127.804688 227.589844 1127.910156 227.832031 C 1128.636719 229.082031 1129.332031 230.332031 1130.0625 231.511719 C 1132.597656 235.78125 1131.488281 239.914062 1128.8125 242.726562 C 1119.089844 255.957031 1109.886719 269.601562 1100.960938 283.351562 C 1113.949219 282.621094 1127.074219 283.144531 1140.132812 283.210938 C 1149.300781 283.210938 1151.734375 293.59375 1147.566406 299.21875 C 1147.148438 300.191406 1146.695312 301.164062 1145.933594 302.066406 C 1145.273438 302.863281 1144.683594 303.699219 1144.023438 304.496094 C 1150.167969 305.988281 1156.109375 307.933594 1162.429688 310.605469 C 1166.976562 312.585938 1168.820312 320.085938 1165.972656 323.976562 C 1158.261719 334.496094 1150.621094 344.980469 1142.910156 355.5 C 1149.441406 356.402344 1155.96875 357.652344 1162.289062 359.667969 C 1163.851562 360.121094 1165.101562 360.917969 1166.074219 361.820312 C 1168.679688 363.382812 1170.519531 366.125 1170.519531 370.1875 C 1170.519531 379.25 1170.625 386.230469 1171.179688 392.480469 C 1182.464844 394.632812 1193.542969 397.132812 1204.691406 399.839844 " fill-opacity="1" fill-rule="nonzero"/></svg>